<?xml version="1.0" standalone="no"?>
<!DOCTYPE svg PUBLIC "-//W3C//DTD SVG 20010904//EN"
 "http://www.w3.org/TR/2001/REC-SVG-20010904/DTD/svg10.dtd">
<svg version="1.0" xmlns="http://www.w3.org/2000/svg"
 width="154.000000pt" height="181.000000pt" viewBox="0 0 154.000000 181.000000"
 preserveAspectRatio="xMidYMid meet">

<g transform="translate(0.000000,181.000000) scale(0.100000,-0.100000)"
fill="#000000" stroke="none">
<path d="M648 1740 c-117 -21 -250 -73 -330 -128 -141 -97 -260 -271 -304
-441 -24 -98 -16 -263 19 -360 67 -186 121 -250 574 -684 121 -116 139 -124
198 -88 55 33 531 513 575 579 96 146 130 248 130 398 0 127 -15 196 -65 299
-100 206 -274 347 -500 405 -91 24 -227 33 -297 20z m21 -124 c7 -8 11 -29 9
-47 -3 -31 -7 -34 -74 -54 -152 -46 -265 -140 -332 -274 -21 -42 -41 -86 -44
-99 -5 -19 -13 -22 -52 -22 -45 0 -46 1 -46 32 0 18 20 74 46 126 78 162 215
276 394 329 91 27 85 26 99 9z m267 -7 c181 -55 326 -175 402 -329 23 -47 43
-101 44 -120 l3 -35 -44 0 c-29 0 -46 5 -51 15 -5 8 -24 50 -44 92 -66 139
-170 227 -330 279 -77 25 -81 28 -84 58 -3 30 11 61 28 61 4 0 39 -9 76 -21z
m74 -262 c13 -7 35 -28 47 -46 22 -33 23 -41 23 -257 l0 -222 -25 -30 c-14
-17 -25 -37 -25 -46 0 -26 -38 -56 -71 -56 -46 0 -69 16 -69 50 l0 30 -130 0
c-118 0 -130 -2 -130 -18 0 -10 -7 -28 -16 -40 -27 -38 -124 -25 -124 18 0 10
-12 33 -27 51 l-28 33 -3 210 c-4 242 3 277 57 313 33 22 41 23 265 23 165 0
238 -4 256 -13z m-601 -201 c7 -9 11 -41 9 -83 l-3 -68 -30 0 -30 0 -3 74 c-2
53 1 77 10 82 19 13 34 11 47 -5z m745 -2 c18 -18 22 -104 6 -135 -12 -21 -40
-25 -58 -7 -7 7 -12 39 -12 73 0 79 26 107 64 69z m-947 -176 c5 -7 17 -42 27
-78 9 -36 35 -93 57 -128 21 -35 39 -69 39 -76 0 -7 -11 -23 -25 -36 l-25 -24
-36 35 c-45 43 -112 179 -121 243 -5 41 -3 51 12 62 24 17 60 18 72 2z m1165
1 c18 -10 20 -17 14 -67 -4 -30 -17 -77 -31 -103 -35 -70 -104 -169 -117 -169
-17 0 -58 41 -58 57 0 8 16 37 35 66 20 29 47 88 61 132 30 96 47 110 96 84z
m-867 -391 c28 -14 48 -31 51 -44 7 -27 -11 -64 -32 -64 -29 0 -114 50 -114
67 0 14 36 63 46 63 2 0 24 -10 49 -22z m574 -2 c35 -37 24 -57 -49 -93 -56
-28 -94 -39 -197 -59 -14 -3 -24 -14 -28 -34 -11 -50 -60 -65 -95 -30 -26 26
-27 105 -1 139 15 20 30 25 103 31 57 5 108 18 159 38 41 17 77 31 80 31 3 1
16 -10 28 -23z"/>
<path d="M551 1261 c-39 -39 -35 -190 5 -205 9 -3 100 -6 203 -6 173 0 189 2
205 19 36 39 33 154 -5 192 -17 17 -34 19 -204 19 -168 0 -187 -2 -204 -19z"/>
<path d="M530 940 c-55 -55 14 -129 78 -84 43 30 17 104 -36 104 -12 0 -31 -9
-42 -20z"/>
<path d="M900 940 c-11 -11 -20 -29 -20 -40 0 -27 35 -60 63 -60 50 0 76 70
39 103 -25 23 -58 21 -82 -3z"/>
</g>
</svg>
